.                        .-----------------TTTT_-----_______
                        /''''''''''(______O] ----------____  i______/]_
     __...---'"""t_ --''   Q                               ___________@
 |'''                   ._ _________________=----------'''''''
 |  *PatruDoi*    ..--''|   l L |_l   |
 |          ..--''      .  /-___j '   '
 |    ..--''           /  ,       '   '
 |--''                /           `    '
                      L__'         '    -
                                    -    '-.
                                     '.    /
                                       '-./


				presents
							
				
	C-Walk - It's a Way of Livin'(2003) DOCU DVDRip x264-PatruDoi

		
(It's been A LOT of work making this rip, please leave a comment!)


-----------------------------------------------------------------------------
  Buy: http://www.amazon.com/dp/B00009Q4W0
-----------------------------------------------------------------------------

---------------------------------
  Info: http://cwalkLA.com/
---------------------------------
 

Director: CJ Mac
Genre: Dance
Movie Type: Biography, Sociology
Themes: Inner City Blues, Street Gangs
Release Year: 2003
Country: US 
Run Time: 85 minutes
  
  Straight off the streets of South Central L.A., CJ Mac brings you a documentary about a gang ritual that has become a popular dance craze. Hear the opinions from the artists who made the C-Walk mainstream through music videos and live   performances, and meet the original Crip gang members who started the walk. Is it a dance... or a gang ritual? You decide! Features Snoop Dogg, WC, Ice-T, Kurupt, Ras Kass, Malik Yoba, Warren G and Jonathan Davis. 

------------
Release Info:
------------

Source: NTSC DVD


Format                           : Matroska
File size                        : 2.62 GiB
Duration                         : 1h 25mn
Overall bit rate                 : 4 416 Kbps
Writing application              : mkvmerge v4.3.0 ('Escape from the Island') 
Cover                            : Front DVD cover

Video
ID                               : 1
Format                           : AVC
Format/Info                      : Advanced Video Codec
Format profile                   : High@L3.1
Format settings, CABAC           : Yes
Format settings, ReFrames        : 6 frames
Muxing mode                      : Container profile=Unknown@3.1
Codec ID                         : V_MPEG4/ISO/AVC
Duration                         : 1h 25mn
Bit rate                         : 4 136 Kbps
Width                            : 720 pixels
Height                           : 480 pixels
Display aspect ratio             : 4:3
Original display aspect ratio    : 3:2
Frame rate                       : 59.940 fps
Standard                         : NTSC
Color space                      : YUV
Chroma subsampling               : 4:2:0
Bit depth                        : 8 bits
Scan type                        : Progressive
Bits/(Pixel*Frame)               : 0.200
Stream size                      : 2.46 GiB (94%)
Title                            : x264 CRF17 4136kbps 60FPS/vfr
Writing library                  : x264 core 107 r1745 4785e8e
Encoding settings                : cabac=1 / ref=6 / deblock=1:0:0 / analyse=0x3:0x133 / me=umh / subme=10 / psy=1 / psy_rd=1.00:0.00 / mixed_ref=1 / me_range=32 / chroma_me=1 / trellis=2 / 8x8dct=1 / cqm=0 / deadzone=21,11 / fast_pskip=0 / chroma_qp_offset=-2 / threads=3 / sliced_threads=0 / nr=0 / decimate=0 / interlaced=0 / constrained_intra=0 / bframes=10 / b_pyramid=2 / b_adapt=2 / b_bias=0 / direct=1 / weightb=1 / open_gop=0 / weightp=2 / keyint=700 / keyint_min=59 / scenecut=40 / intra_refresh=0 / rc_lookahead=120 / rc=crf / mbtree=1 / crf=17.0 / qcomp=0.60 / qpmin=10 / qpmax=51 / qpstep=4 / ip_ratio=1.40 / aq=1:1.00

Audio
ID                               : 2
Format                           : AC-3
Format/Info                      : Audio Coding 3
Mode extension                   : CM (complete main)
Codec ID                         : A_AC3
Bit rate mode                    : Constant
Bit rate                         : 192 Kbps
Channel(s)                       : 2 channels
Sampling rate                    : 48.0 KHz
Bit depth                        : 16 bits
Video delay                      : 40ms
Stream size                      : 117 MiB (4%)
Title                            : AC3 Stereo 192kbps 48KHz   

Menu
00:00:01.300                     : :Introduction
00:00:50.267                     : :Welcome to L.A.
00:02:17.633                     : :Crip History
00:04:27.933                     : :O.G.'s First
00:08:36.100                     : :Gettin' Down
00:10:21.100                     : :Criplet
00:15:44.667                     : :Walkin' Has Changed
00:17:11.000                     : :C-Walk Banned!!
00:17:40.367                     : :Homeboy The Clown
00:18:25.000                     : :More Walkin'
00:20:44.533                     : :A Day with Snoop Dogg
00:24:57.733                     : :Just a Dance?
00:27:13.000                     : :At War
00:29:45.900                     : :Crip Football
00:33:45.400                     : :The Artists Speak Out
00:35:37.033                     : :Incarceration
00:36:51.133                     : :In a Perfect World
00:40:40.033                     : :You Decide
00:42:22.767                     : :Director's Commentary
01:05:20.733                     : :Ghost
01:09:55.200                     : :Clown'n
01:14:28.767                     : :G-Bob
01:18:11.367                     : :Promotional Trailer for C Walk vol.1
01:23:05.200                     : :End Credits
01:24:08.767                     : :Coming Soon - Pray wit'cha Eyes Open






--------------------------
Recommended for playback:
--------------------------

Media Player Classic - Homecinema   
http://mpc-hc.sourceforge.net/

FFDShow:   
http://sourceforge.net/projects/ffdshow-tryout/

Haali Media Splitter   
http://haali.cs.msu.ru/mkv/

AC3Filter   
http://ac3filter.net/projects/ac3filter



Enjoy!		
Pay the artist if you like his work!

Other torrents:  
http://thepiratebay.org/user/aand		